<svg width="20" height="19" viewBox="0 0 20 19" fill="none" xmlns="http://www.w3.org/2000/svg">
<path d="M14.5 1C17.0277 1 19 2.97228 19 5.5C19 7.06153 18.3066 8.5567 16.8818 10.2998C15.4459 12.0565 13.3736 13.9403 10.7793 16.2979L10.002 16.999L9.22363 16.29L9.22168 16.2891C6.62662 13.9359 4.55418 12.0535 3.11816 10.2979C1.69361 8.5562 1 7.06152 1 5.5C1 2.97228 2.97228 1 5.5 1C6.93712 1 8.33187 1.674 9.23828 2.73828L10 3.63281L10.7617 2.73828C11.6681 1.674 13.0629 1 14.5 1Z" fill="white" stroke="#0C0C0C" stroke-width="2"/>
</svg>
