<svg width="16" height="17" viewBox="0 0 16 17" fill="none" xmlns="http://www.w3.org/2000/svg">
<path d="M14.39 11.56C12.71 10.7 10.53 10 8 10C5.47 10 3.29 10.7 1.61 11.56C0.61 12.07 0 13.1 0 14.22V17H16V14.22C16 13.1 15.39 12.07 14.39 11.56ZM14 15H2V14.22C2 13.84 2.2 13.5 2.52 13.34C3.71 12.73 5.63 12 8 12C10.37 12 12.29 12.73 13.48 13.34C13.8 13.5 14 13.84 14 14.22V15Z" fill="#202020"/>
<path d="M8 9C10.21 9 12 7.21 12 5C12 3.63 12 1.5 12 1.5C12 0.67 11.33 0 10.5 0C9.98 0 9.52 0.27 9.25 0.67C8.98 0.27 8.52 0 8 0C7.48 0 7.02 0.27 6.75 0.67C6.48 0.27 6.02 0 5.5 0C4.67 0 4 0.67 4 1.5C4 1.5 4 3.62 4 5C4 7.21 5.79 9 8 9ZM6 2.5H10V5C10 6.1 9.1 7 8 7C6.9 7 6 6.1 6 5V2.5Z" fill="#202020"/>
</svg>
