<svg width="10" height="10" viewBox="0 0 10 10" fill="none" xmlns="http://www.w3.org/2000/svg">
<mask id="path-1-inside-1_5252_2650" fill="white">
<path fill-rule="evenodd" clip-rule="evenodd" d="M5 10C7.76142 10 10 7.76142 10 5C10 2.23858 7.76142 0 5 0C2.23858 0 0 2.23858 0 5C0 7.21562 1.44111 9.09466 3.43712 9.75089C3.45859 9.67078 3.48188 9.59176 3.50707 9.51387C2.92558 8.83795 2.92505 8.18061 2.92505 7.84982L2.92505 7.84947C2.92755 6.95619 3.19644 6.13606 3.88142 5.54186C4.56334 4.95031 5.63818 4.59982 7.21672 4.59982H8.61047C8.6795 4.59982 8.73547 4.65579 8.73547 4.72482V5.41927V5.42644L8.73526 5.42643C8.64743 6.95679 8.22624 8.03252 7.53368 8.72535C6.83991 9.41939 5.89219 9.71093 4.79102 9.71093H3.74449C3.73251 9.71093 3.72071 9.70921 3.70941 9.70591C3.69803 9.74462 3.6871 9.78365 3.67663 9.82299C4.09814 9.93839 4.54187 10 5 10ZM4.20057 8.63531C4.03251 8.88741 3.8972 9.16113 3.7913 9.45506L3.79694 9.46093H4.79102C5.84888 9.46093 6.72407 9.18165 7.35687 8.5486C7.99037 7.91485 8.39924 6.90835 8.48547 5.41567V4.84982H7.21672C5.67025 4.84982 4.66419 5.19378 4.04524 5.7307C3.42939 6.26494 3.17744 7.00725 3.17505 7.85V7.85078C3.17505 8.1441 3.17505 8.67374 3.60583 9.23885C3.70986 8.97662 3.83785 8.7287 3.99256 8.49663C4.39757 7.88912 4.98117 7.39704 5.78191 7.04115C5.845 7.01311 5.91887 7.04153 5.94691 7.10461C5.97494 7.1677 5.94653 7.24157 5.88345 7.2696C5.12169 7.60816 4.57682 8.07094 4.20057 8.63531Z"/>
</mask>
<path fill-rule="evenodd" clip-rule="evenodd" d="M5 10C7.76142 10 10 7.76142 10 5C10 2.23858 7.76142 0 5 0C2.23858 0 0 2.23858 0 5C0 7.21562 1.44111 9.09466 3.43712 9.75089C3.45859 9.67078 3.48188 9.59176 3.50707 9.51387C2.92558 8.83795 2.92505 8.18061 2.92505 7.84982L2.92505 7.84947C2.92755 6.95619 3.19644 6.13606 3.88142 5.54186C4.56334 4.95031 5.63818 4.59982 7.21672 4.59982H8.61047C8.6795 4.59982 8.73547 4.65579 8.73547 4.72482V5.41927V5.42644L8.73526 5.42643C8.64743 6.95679 8.22624 8.03252 7.53368 8.72535C6.83991 9.41939 5.89219 9.71093 4.79102 9.71093H3.74449C3.73251 9.71093 3.72071 9.70921 3.70941 9.70591C3.69803 9.74462 3.6871 9.78365 3.67663 9.82299C4.09814 9.93839 4.54187 10 5 10ZM4.20057 8.63531C4.03251 8.88741 3.8972 9.16113 3.7913 9.45506L3.79694 9.46093H4.79102C5.84888 9.46093 6.72407 9.18165 7.35687 8.5486C7.99037 7.91485 8.39924 6.90835 8.48547 5.41567V4.84982H7.21672C5.67025 4.84982 4.66419 5.19378 4.04524 5.7307C3.42939 6.26494 3.17744 7.00725 3.17505 7.85V7.85078C3.17505 8.1441 3.17505 8.67374 3.60583 9.23885C3.70986 8.97662 3.83785 8.7287 3.99256 8.49663C4.39757 7.88912 4.98117 7.39704 5.78191 7.04115C5.845 7.01311 5.91887 7.04153 5.94691 7.10461C5.97494 7.1677 5.94653 7.24157 5.88345 7.2696C5.12169 7.60816 4.57682 8.07094 4.20057 8.63531Z" fill="#748C70"/>
<path d="M3.43712 9.75089L3.35904 9.98838L3.61018 10.071L3.67861 9.8156L3.43712 9.75089ZM3.50707 9.51387L3.74494 9.59078L3.78812 9.45723L3.69659 9.35083L3.50707 9.51387ZM2.92505 7.84982L2.67505 7.84948V7.84982H2.92505ZM2.92505 7.84947L2.67505 7.84877L2.67505 7.84913L2.92505 7.84947ZM3.88142 5.54186L4.04524 5.7307L3.88142 5.54186ZM8.73547 5.42644L8.7216 5.67606L8.98547 5.69072V5.42644H8.73547ZM8.73526 5.42643L8.74913 5.17681L8.49997 5.16297L8.48567 5.41211L8.73526 5.42643ZM7.53368 8.72535L7.71049 8.90209V8.90209L7.53368 8.72535ZM3.70941 9.70591L3.77957 9.46596L3.54 9.39592L3.46957 9.63537L3.70941 9.70591ZM3.67663 9.82299L3.43505 9.75867L3.37117 9.99857L3.61062 10.0641L3.67663 9.82299ZM3.7913 9.45506L3.5561 9.37033L3.50348 9.51637L3.61104 9.62829L3.7913 9.45506ZM4.20057 8.63531L3.99256 8.49663L4.20057 8.63531ZM3.79694 9.46093L3.61668 9.63416L3.69046 9.71093H3.79694V9.46093ZM7.35687 8.5486L7.53368 8.72535H7.53368L7.35687 8.5486ZM8.48547 5.41567L8.73505 5.43009L8.73547 5.42289V5.41567H8.48547ZM8.48547 4.84982H8.73547V4.59982H8.48547V4.84982ZM4.04524 5.7307L3.88142 5.54186H3.88142L4.04524 5.7307ZM3.17505 7.85L2.92505 7.84929V7.85H3.17505ZM3.17505 7.85078L3.42505 7.85078V7.85078H3.17505ZM3.60583 9.23885L3.407 9.39041L3.67512 9.74214L3.83821 9.33104L3.60583 9.23885ZM3.99256 8.49663L3.78455 8.35796H3.78455L3.99256 8.49663ZM5.78191 7.04115L5.88345 7.2696H5.88345L5.78191 7.04115ZM5.88345 7.2696L5.78191 7.04115V7.04115L5.88345 7.2696ZM9.75 5C9.75 7.62335 7.62335 9.75 5 9.75V10.25C7.89949 10.25 10.25 7.89949 10.25 5H9.75ZM5 0.25C7.62335 0.25 9.75 2.37665 9.75 5H10.25C10.25 2.1005 7.89949 -0.25 5 -0.25V0.25ZM0.25 5C0.25 2.37665 2.37665 0.25 5 0.25V-0.25C2.1005 -0.25 -0.25 2.1005 -0.25 5H0.25ZM3.51521 9.5134C1.61873 8.88989 0.25 7.10446 0.25 5H-0.25C-0.25 7.32679 1.2635 9.29943 3.35904 9.98838L3.51521 9.5134ZM3.67861 9.8156C3.69901 9.73945 3.7211 9.6645 3.74494 9.59078L3.26919 9.43696C3.24266 9.51901 3.21817 9.6021 3.19564 9.68618L3.67861 9.8156ZM3.69659 9.35083C3.17569 8.74534 3.17505 8.1653 3.17505 7.84982H2.67505C2.67505 8.19593 2.67547 8.93056 3.31755 9.67691L3.69659 9.35083ZM3.17505 7.85016L3.17505 7.84981L2.67505 7.84913L2.67505 7.84948L3.17505 7.85016ZM3.17505 7.85017C3.17741 7.00729 3.42938 6.26495 4.04524 5.7307L3.7176 5.35301C2.96351 6.00717 2.67769 6.90509 2.67505 7.84877L3.17505 7.85017ZM4.04524 5.7307C4.66418 5.19379 5.67023 4.84982 7.21672 4.84982V4.34982C5.60614 4.34982 4.46249 4.70684 3.7176 5.35301L4.04524 5.7307ZM7.21672 4.84982H8.61047V4.34982H7.21672V4.84982ZM8.61047 4.84982C8.54143 4.84982 8.48547 4.79386 8.48547 4.72482H8.98547C8.98547 4.51772 8.81757 4.34982 8.61047 4.34982V4.84982ZM8.48547 4.72482V5.41927H8.98547V4.72482H8.48547ZM8.48547 5.41927V5.42644H8.98547V5.41927H8.48547ZM8.74933 5.17683L8.74913 5.17681L8.72139 5.67604L8.7216 5.67606L8.74933 5.17683ZM8.48567 5.41211C8.39989 6.90677 7.99086 7.91436 7.35687 8.5486L7.71049 8.90209C8.46161 8.15068 8.89497 7.0068 8.98485 5.44075L8.48567 5.41211ZM7.35687 8.5486C6.72409 9.18163 5.84892 9.46093 4.79102 9.46093V9.96093C5.93546 9.96093 6.95573 9.65715 7.71049 8.90209L7.35687 8.5486ZM4.79102 9.46093H3.74449V9.96093H4.79102V9.46093ZM3.74449 9.46093C3.75647 9.46093 3.76828 9.46266 3.77957 9.46596L3.63926 9.94587C3.67314 9.95577 3.70856 9.96093 3.74449 9.96093V9.46093ZM3.46957 9.63537C3.45756 9.6762 3.44606 9.7173 3.43505 9.75867L3.91821 9.88732C3.92815 9.85 3.93849 9.81304 3.94925 9.77645L3.46957 9.63537ZM5 9.75C4.56438 9.75 4.14284 9.69143 3.74264 9.58187L3.61062 10.0641C4.05344 10.1853 4.51937 10.25 5 10.25V9.75ZM4.0265 9.5398C4.12611 9.26333 4.25261 9.00795 4.40859 8.77398L3.99256 8.49663C3.8124 8.76687 3.66828 9.05894 3.5561 9.37033L4.0265 9.5398ZM3.97719 9.28771L3.97155 9.28184L3.61104 9.62829L3.61668 9.63416L3.97719 9.28771ZM4.79102 9.21093H3.79694V9.71093H4.79102V9.21093ZM7.18006 8.37186C6.60821 8.94393 5.80552 9.21093 4.79102 9.21093V9.71093C5.89223 9.71093 6.83994 9.41936 7.53368 8.72535L7.18006 8.37186ZM8.23588 5.40126C8.15172 6.85818 7.75507 7.79663 7.18006 8.37186L7.53368 8.72535C8.22567 8.03308 8.64676 6.95852 8.73505 5.43009L8.23588 5.40126ZM8.23547 4.84982V5.41567H8.73547V4.84982H8.23547ZM7.21672 5.09982H8.48547V4.59982H7.21672V5.09982ZM4.20906 5.91955C4.76506 5.43723 5.70234 5.09982 7.21672 5.09982V4.59982C5.63816 4.59982 4.56332 4.95032 3.88142 5.54186L4.20906 5.91955ZM3.42505 7.85071C3.4273 7.05848 3.66225 6.3939 4.20906 5.91955L3.88142 5.54186C3.19653 6.13598 2.92759 6.95601 2.92505 7.84929L3.42505 7.85071ZM3.42505 7.85078V7.85H2.92505V7.85078H3.42505ZM3.80465 9.08729C3.4259 8.59043 3.42505 8.13181 3.42505 7.85078L2.92505 7.85078C2.92505 8.15639 2.9242 8.75704 3.407 9.39041L3.80465 9.08729ZM3.78455 8.35796C3.61948 8.60556 3.48351 8.8692 3.37344 9.14666L3.83821 9.33104C3.9362 9.08403 4.05622 8.85184 4.20057 8.63531L3.78455 8.35796ZM5.68038 6.8127C4.84065 7.18591 4.21832 7.7073 3.78455 8.35796L4.20057 8.63531C4.57682 8.07094 5.12169 7.60817 5.88345 7.2696L5.68038 6.8127ZM6.17536 7.00308C6.09125 6.81382 5.86964 6.72858 5.68038 6.8127L5.88345 7.2696C5.82036 7.29764 5.74649 7.26923 5.71845 7.20615L6.17536 7.00308ZM5.98498 7.49806C6.17424 7.41394 6.25947 7.19233 6.17536 7.00308L5.71845 7.20615C5.69042 7.14306 5.71883 7.06919 5.78191 7.04115L5.98498 7.49806ZM4.40859 8.77398C4.75607 8.25276 5.26221 7.81929 5.98498 7.49806L5.78191 7.04115C4.98117 7.39704 4.39757 7.88913 3.99256 8.49663L4.40859 8.77398Z" fill="#748C70" mask="url(#path-1-inside-1_5252_2650)"/>
</svg>
