<svg width="152" height="40" viewBox="0 0 152 40" fill="none" xmlns="http://www.w3.org/2000/svg">
<path d="M18.0639 8.49562C19.0559 8.49562 19.9305 8.70362 20.6879 9.11962C21.4452 9.52496 22.0372 10.1543 22.4639 11.0076C22.9012 11.861 23.1199 12.9596 23.1199 14.3036V22.0156H18.3359V15.0396C18.3359 14.1223 18.1972 13.381 17.9199 12.8156C17.6425 12.2503 17.0932 11.9676 16.2719 11.9676C15.7812 11.9676 15.3492 12.0956 14.9759 12.3516C14.6025 12.6076 14.3145 12.965 14.1119 13.4236C13.9092 13.8716 13.8079 14.4103 13.8079 15.0396V22.0156H9.34386V15.0396C9.34386 14.1223 9.18919 13.381 8.87986 12.8156C8.58119 12.2503 8.04786 11.9676 7.27986 11.9676C6.78919 11.9676 6.35719 12.0956 5.98386 12.3516C5.61053 12.597 5.32253 12.949 5.11986 13.4076C4.92786 13.8556 4.83186 14.3996 4.83186 15.0396V22.0156H-0.000138998V8.87962H4.83186V10.7516C4.95986 10.421 5.23719 10.085 5.66386 9.74362C6.10119 9.39162 6.63986 9.09829 7.27986 8.86362C7.91986 8.61829 8.59719 8.49562 9.31186 8.49562C10.0905 8.49562 10.7412 8.61296 11.2639 8.84762C11.7865 9.07162 12.2132 9.37562 12.5439 9.75962C12.8852 10.1436 13.1572 10.5596 13.3599 11.0076C13.5092 10.6236 13.8025 10.2396 14.2399 9.85562C14.6879 9.46096 15.2425 9.13562 15.9039 8.87962C16.5759 8.62362 17.2959 8.49562 18.0639 8.49562ZM35.8254 22.3996C34.3854 22.3996 33.1054 22.1063 31.9854 21.5196C30.876 20.9223 30.0014 20.1063 29.3614 19.0716C28.732 18.0263 28.4174 16.8316 28.4174 15.4876C28.4174 14.1436 28.732 12.949 29.3614 11.9036C30.0014 10.8476 30.876 10.0156 31.9854 9.40762C33.1054 8.79962 34.3854 8.49562 35.8254 8.49562C37.2654 8.49562 38.5347 8.79962 39.6334 9.40762C40.732 10.0156 41.5907 10.8476 42.2094 11.9036C42.828 12.949 43.1374 14.1436 43.1374 15.4876C43.1374 16.8316 42.828 18.0263 42.2094 19.0716C41.5907 20.1063 40.732 20.9223 39.6334 21.5196C38.5347 22.1063 37.2654 22.3996 35.8254 22.3996ZM35.8254 18.3996C36.38 18.3996 36.86 18.277 37.2654 18.0316C37.6707 17.7863 37.9854 17.4396 38.2094 16.9916C38.4334 16.5436 38.5454 16.037 38.5454 15.4716C38.5454 14.8956 38.4334 14.3836 38.2094 13.9356C37.9854 13.4876 37.6707 13.1356 37.2654 12.8796C36.86 12.6236 36.38 12.4956 35.8254 12.4956C35.2707 12.4956 34.7854 12.6236 34.3694 12.8796C33.964 13.1356 33.644 13.4876 33.4094 13.9356C33.1854 14.3836 33.0734 14.8956 33.0734 15.4716C33.0734 16.037 33.1854 16.5436 33.4094 16.9916C33.644 17.4396 33.964 17.7863 34.3694 18.0316C34.7854 18.277 35.2707 18.3996 35.8254 18.3996ZM54.5006 22.3996C53.2313 22.3996 52.1273 22.0903 51.1886 21.4716C50.2499 20.8423 49.5193 20.005 48.9966 18.9596C48.4846 17.9036 48.2286 16.7356 48.2286 15.4556C48.2286 14.1756 48.4846 13.013 48.9966 11.9676C49.5193 10.9116 50.2499 10.069 51.1886 9.43962C52.1273 8.81029 53.2313 8.49562 54.5006 8.49562C55.3433 8.49562 56.0899 8.62896 56.7406 8.89562C57.3913 9.15162 57.9193 9.46096 58.3246 9.82362C58.7299 10.1756 58.9753 10.501 59.0606 10.7996V-0.000375748H63.9246V22.0156H59.1086V19.8876C58.9059 20.2823 58.5753 20.677 58.1166 21.0716C57.6579 21.4556 57.1193 21.7703 56.5006 22.0156C55.8819 22.2716 55.2153 22.3996 54.5006 22.3996ZM55.9886 18.5756C56.5753 18.5756 57.0979 18.4423 57.5566 18.1756C58.0259 17.909 58.3939 17.541 58.6606 17.0716C58.9273 16.5916 59.0606 16.053 59.0606 15.4556C59.0606 14.8583 58.9273 14.325 58.6606 13.8556C58.3939 13.3756 58.0259 13.0023 57.5566 12.7356C57.0979 12.4583 56.5753 12.3196 55.9886 12.3196C55.4233 12.3196 54.9113 12.4583 54.4526 12.7356C54.0046 13.0023 53.6473 13.3756 53.3806 13.8556C53.1246 14.325 52.9966 14.8583 52.9966 15.4556C52.9966 16.053 53.1246 16.5916 53.3806 17.0716C53.6473 17.541 54.0046 17.909 54.4526 18.1756C54.9113 18.4423 55.4233 18.5756 55.9886 18.5756ZM70.1036 22.0156V8.87962H74.9676V22.0156H70.1036ZM72.5996 6.17562C71.8316 6.17562 71.1809 5.90896 70.6476 5.37562C70.1143 4.83162 69.8476 4.18629 69.8476 3.43962C69.8476 2.69296 70.1143 2.04762 70.6476 1.50362C71.1916 0.948957 71.8423 0.671623 72.5996 0.671623C73.1009 0.671623 73.5596 0.799623 73.9756 1.05562C74.3916 1.30096 74.7276 1.63162 74.9836 2.04762C75.2396 2.46362 75.3676 2.92762 75.3676 3.43962C75.3676 4.18629 75.0956 4.83162 74.5516 5.37562C74.0076 5.90896 73.3569 6.17562 72.5996 6.17562ZM99.5826 8.49562C100.575 8.49562 101.449 8.70362 102.207 9.11962C102.964 9.52496 103.556 10.1543 103.983 11.0076C104.42 11.861 104.639 12.9596 104.639 14.3036V22.0156H99.8546V15.0396C99.8546 14.1223 99.7159 13.381 99.4386 12.8156C99.1613 12.2503 98.6119 11.9676 97.7906 11.9676C97.2999 11.9676 96.8679 12.0956 96.4946 12.3516C96.1213 12.6076 95.8333 12.965 95.6306 13.4236C95.4279 13.8716 95.3266 14.4103 95.3266 15.0396V22.0156H90.8626V15.0396C90.8626 14.1223 90.7079 13.381 90.3986 12.8156C90.0999 12.2503 89.5666 11.9676 88.7986 11.9676C88.3079 11.9676 87.8759 12.0956 87.5026 12.3516C87.1293 12.597 86.8413 12.949 86.6386 13.4076C86.4466 13.8556 86.3506 14.3996 86.3506 15.0396V22.0156H81.5186V8.87962H86.3506V10.7516C86.4786 10.421 86.7559 10.085 87.1826 9.74362C87.6199 9.39162 88.1586 9.09829 88.7986 8.86362C89.4386 8.61829 90.1159 8.49562 90.8306 8.49562C91.6093 8.49562 92.2599 8.61296 92.7826 8.84762C93.3053 9.07162 93.7319 9.37562 94.0626 9.75962C94.4039 10.1436 94.6759 10.5596 94.8786 11.0076C95.0279 10.6236 95.3213 10.2396 95.7586 9.85562C96.2066 9.46096 96.7613 9.13562 97.4226 8.87962C98.0946 8.62362 98.8146 8.49562 99.5826 8.49562ZM120.848 22.0156V19.8876C120.752 20.101 120.507 20.4103 120.112 20.8156C119.728 21.221 119.216 21.589 118.576 21.9196C117.936 22.2396 117.189 22.3996 116.336 22.3996C115.056 22.3996 113.936 22.0903 112.976 21.4716C112.016 20.8423 111.269 20.005 110.736 18.9596C110.203 17.9036 109.936 16.7356 109.936 15.4556C109.936 14.1756 110.203 13.013 110.736 11.9676C111.269 10.9116 112.016 10.069 112.976 9.43962C113.936 8.81029 115.056 8.49562 116.336 8.49562C117.157 8.49562 117.877 8.62896 118.496 8.89562C119.115 9.15162 119.616 9.46096 120 9.82362C120.384 10.1756 120.651 10.501 120.8 10.7996V8.87962H125.632V22.0156H120.848ZM114.704 15.4556C114.704 16.053 114.843 16.5916 115.12 17.0716C115.397 17.541 115.765 17.909 116.224 18.1756C116.693 18.4423 117.211 18.5756 117.776 18.5756C118.363 18.5756 118.88 18.4423 119.328 18.1756C119.776 17.909 120.128 17.541 120.384 17.0716C120.651 16.5916 120.784 16.053 120.784 15.4556C120.784 14.8583 120.651 14.325 120.384 13.8556C120.128 13.3756 119.776 13.0023 119.328 12.7356C118.88 12.4583 118.363 12.3196 117.776 12.3196C117.211 12.3196 116.693 12.4583 116.224 12.7356C115.765 13.0023 115.397 13.3756 115.12 13.8556C114.843 14.325 114.704 14.8583 114.704 15.4556ZM136.783 22.0156H131.903V-0.000375748H136.783V22.0156Z" fill="#404040"/>
<mask id="path-2-inside-1_630_6864" fill="white">
<path fill-rule="evenodd" clip-rule="evenodd" d="M146.865 22.0156C149.627 22.0156 151.865 19.777 151.865 17.0156C151.865 14.2542 149.627 12.0156 146.865 12.0156C144.104 12.0156 141.865 14.2542 141.865 17.0156C141.865 19.2312 143.306 21.1103 145.302 21.7665C145.324 21.6864 145.347 21.6074 145.372 21.5295C144.791 20.8536 144.79 20.1962 144.79 19.8654L144.79 19.8651C144.793 18.9718 145.062 18.1517 145.747 17.5575C146.429 16.9659 147.503 16.6154 149.082 16.6154H150.476C150.545 16.6154 150.601 16.6714 150.601 16.7404V17.4349V17.4421L150.6 17.4421C150.513 18.9724 150.091 20.0481 149.399 20.741C148.705 21.435 147.757 21.7266 146.656 21.7266H145.61C145.598 21.7266 145.586 21.7248 145.575 21.7215C145.563 21.7602 145.552 21.7993 145.542 21.8386C145.963 21.954 146.407 22.0156 146.865 22.0156ZM146.066 20.6509C145.898 20.903 145.762 21.1768 145.657 21.4707L145.662 21.4766H146.656C147.714 21.4766 148.589 21.1973 149.222 20.5642C149.856 19.9305 150.264 18.924 150.351 17.4313V16.8654H149.082C147.535 16.8654 146.529 17.2094 145.91 17.7463C145.295 18.2806 145.043 19.0229 145.04 19.8656V19.8664C145.04 20.1597 145.04 20.6894 145.471 21.2545C145.575 20.9922 145.703 20.7443 145.858 20.5123C146.263 19.9047 146.846 19.4127 147.647 19.0568C147.71 19.0287 147.784 19.0572 147.812 19.1202C147.84 19.1833 147.812 19.2572 147.749 19.2852C146.987 19.6238 146.442 20.0866 146.066 20.6509Z"/>
</mask>
<path fill-rule="evenodd" clip-rule="evenodd" d="M146.865 22.0156C149.627 22.0156 151.865 19.777 151.865 17.0156C151.865 14.2542 149.627 12.0156 146.865 12.0156C144.104 12.0156 141.865 14.2542 141.865 17.0156C141.865 19.2312 143.306 21.1103 145.302 21.7665C145.324 21.6864 145.347 21.6074 145.372 21.5295C144.791 20.8536 144.79 20.1962 144.79 19.8654L144.79 19.8651C144.793 18.9718 145.062 18.1517 145.747 17.5575C146.429 16.9659 147.503 16.6154 149.082 16.6154H150.476C150.545 16.6154 150.601 16.6714 150.601 16.7404V17.4349V17.4421L150.6 17.4421C150.513 18.9724 150.091 20.0481 149.399 20.741C148.705 21.435 147.757 21.7266 146.656 21.7266H145.61C145.598 21.7266 145.586 21.7248 145.575 21.7215C145.563 21.7602 145.552 21.7993 145.542 21.8386C145.963 21.954 146.407 22.0156 146.865 22.0156ZM146.066 20.6509C145.898 20.903 145.762 21.1768 145.657 21.4707L145.662 21.4766H146.656C147.714 21.4766 148.589 21.1973 149.222 20.5642C149.856 19.9305 150.264 18.924 150.351 17.4313V16.8654H149.082C147.535 16.8654 146.529 17.2094 145.91 17.7463C145.295 18.2806 145.043 19.0229 145.04 19.8656V19.8664C145.04 20.1597 145.04 20.6894 145.471 21.2545C145.575 20.9922 145.703 20.7443 145.858 20.5123C146.263 19.9047 146.846 19.4127 147.647 19.0568C147.71 19.0287 147.784 19.0572 147.812 19.1202C147.84 19.1833 147.812 19.2572 147.749 19.2852C146.987 19.6238 146.442 20.0866 146.066 20.6509Z" fill="#748C70"/>
<path d="M145.302 21.7665L145.224 22.004L145.475 22.0866L145.544 21.8312L145.302 21.7665ZM145.372 21.5295L145.61 21.6064L145.653 21.4729L145.562 21.3665L145.372 21.5295ZM144.79 19.8654L144.54 19.8651V19.8654H144.79ZM144.79 19.8651L144.54 19.8644L144.54 19.8648L144.79 19.8651ZM145.747 17.5575L145.91 17.7463L145.747 17.5575ZM150.601 17.4421L150.587 17.6917L150.851 17.7063V17.4421H150.601ZM150.6 17.4421L150.614 17.1924L150.365 17.1786L150.351 17.4277L150.6 17.4421ZM149.399 20.741L149.576 20.9177V20.9177L149.399 20.741ZM145.575 21.7215L145.645 21.4816L145.405 21.4115L145.335 21.651L145.575 21.7215ZM145.542 21.8386L145.3 21.7743L145.236 22.0142L145.476 22.0797L145.542 21.8386ZM145.657 21.4707L145.421 21.386L145.369 21.532L145.476 21.6439L145.657 21.4707ZM146.066 20.6509L145.858 20.5123L146.066 20.6509ZM145.662 21.4766L145.482 21.6498L145.556 21.7266H145.662V21.4766ZM149.222 20.5642L149.399 20.741H149.399L149.222 20.5642ZM150.351 17.4313L150.6 17.4457L150.601 17.4385V17.4313H150.351ZM150.351 16.8654H150.601V16.6154H150.351V16.8654ZM145.91 17.7463L145.747 17.5575H145.747L145.91 17.7463ZM145.04 19.8656L144.79 19.8649V19.8656H145.04ZM145.04 19.8664L145.29 19.8664V19.8664H145.04ZM145.471 21.2545L145.272 21.406L145.54 21.7578L145.703 21.3467L145.471 21.2545ZM145.858 20.5123L145.65 20.3736H145.65L145.858 20.5123ZM147.647 19.0568L147.749 19.2852H147.749L147.647 19.0568ZM147.749 19.2852L147.647 19.0568V19.0568L147.749 19.2852ZM151.615 17.0156C151.615 19.639 149.489 21.7656 146.865 21.7656V22.2656C149.765 22.2656 152.115 19.9151 152.115 17.0156H151.615ZM146.865 12.2656C149.489 12.2656 151.615 14.3923 151.615 17.0156H152.115C152.115 14.1161 149.765 11.7656 146.865 11.7656V12.2656ZM142.115 17.0156C142.115 14.3923 144.242 12.2656 146.865 12.2656V11.7656C143.966 11.7656 141.615 14.1161 141.615 17.0156H142.115ZM145.38 21.529C143.484 20.9055 142.115 19.1201 142.115 17.0156H141.615C141.615 19.3424 143.129 21.3151 145.224 22.004L145.38 21.529ZM145.544 21.8312C145.564 21.7551 145.586 21.6801 145.61 21.6064L145.134 21.4526C145.108 21.5346 145.083 21.6177 145.061 21.7018L145.544 21.8312ZM145.562 21.3665C145.041 20.761 145.04 20.1809 145.04 19.8654H144.54C144.54 20.2116 144.541 20.9462 145.183 21.6925L145.562 21.3665ZM145.04 19.8658L145.04 19.8654L144.54 19.8648L144.54 19.8651L145.04 19.8658ZM145.04 19.8658C145.043 19.0229 145.295 18.2806 145.91 17.7463L145.583 17.3686C144.829 18.0228 144.543 18.9207 144.54 19.8644L145.04 19.8658ZM145.91 17.7463C146.529 17.2094 147.535 16.8654 149.082 16.8654V16.3654C147.471 16.3654 146.328 16.7225 145.583 17.3686L145.91 17.7463ZM149.082 16.8654H150.476V16.3654H149.082V16.8654ZM150.476 16.8654C150.407 16.8654 150.351 16.8095 150.351 16.7404H150.851C150.851 16.5333 150.683 16.3654 150.476 16.3654V16.8654ZM150.351 16.7404V17.4349H150.851V16.7404H150.351ZM150.351 17.4349V17.4421H150.851V17.4349H150.351ZM150.615 17.1925L150.614 17.1924L150.587 17.6917L150.587 17.6917L150.615 17.1925ZM150.351 17.4277C150.265 18.9224 149.856 19.93 149.222 20.5642L149.576 20.9177C150.327 20.1663 150.76 19.0224 150.85 17.4564L150.351 17.4277ZM149.222 20.5642C148.589 21.1973 147.714 21.4766 146.656 21.4766V21.9766C147.801 21.9766 148.821 21.6728 149.576 20.9177L149.222 20.5642ZM146.656 21.4766H145.61V21.9766H146.656V21.4766ZM145.61 21.4766C145.622 21.4766 145.634 21.4783 145.645 21.4816L145.504 21.9615C145.538 21.9714 145.574 21.9766 145.61 21.9766V21.4766ZM145.335 21.651C145.323 21.6918 145.311 21.7329 145.3 21.7743L145.783 21.9029C145.793 21.8656 145.804 21.8287 145.814 21.7921L145.335 21.651ZM146.865 21.7656C146.43 21.7656 146.008 21.7071 145.608 21.5975L145.476 22.0797C145.919 22.201 146.385 22.2656 146.865 22.2656V21.7656ZM145.892 21.5554C145.991 21.279 146.118 21.0236 146.274 20.7896L145.858 20.5123C145.678 20.7825 145.534 21.0746 145.421 21.386L145.892 21.5554ZM145.842 21.3033L145.837 21.2975L145.476 21.6439L145.482 21.6498L145.842 21.3033ZM146.656 21.2266H145.662V21.7266H146.656V21.2266ZM149.045 20.3875C148.473 20.9596 147.671 21.2266 146.656 21.2266V21.7266C147.757 21.7266 148.705 21.435 149.399 20.741L149.045 20.3875ZM150.101 17.4169C150.017 18.8738 149.62 19.8123 149.045 20.3875L149.399 20.741C150.091 20.0487 150.512 18.9741 150.6 17.4457L150.101 17.4169ZM150.101 16.8654V17.4313H150.601V16.8654H150.101ZM149.082 17.1154H150.351V16.6154H149.082V17.1154ZM146.074 17.9352C146.63 17.4529 147.568 17.1154 149.082 17.1154V16.6154C147.503 16.6154 146.429 16.9659 145.747 17.5575L146.074 17.9352ZM145.29 19.8663C145.293 19.0741 145.527 18.4095 146.074 17.9352L145.747 17.5575C145.062 18.1516 144.793 18.9716 144.79 19.8649L145.29 19.8663ZM145.29 19.8664V19.8656H144.79V19.8664H145.29ZM145.67 21.1029C145.291 20.6061 145.29 20.1474 145.29 19.8664L144.79 19.8664C144.79 20.172 144.789 20.7727 145.272 21.406L145.67 21.1029ZM145.65 20.3736C145.485 20.6212 145.349 20.8848 145.239 21.1623L145.703 21.3467C145.801 21.0997 145.921 20.8675 146.066 20.6509L145.65 20.3736ZM147.546 18.8283C146.706 19.2015 146.084 19.7229 145.65 20.3736L146.066 20.6509C146.442 20.0866 146.987 19.6238 147.749 19.2852L147.546 18.8283ZM148.041 19.0187C147.956 18.8294 147.735 18.7442 147.546 18.8283L147.749 19.2852C147.686 19.3133 147.612 19.2849 147.584 19.2218L148.041 19.0187ZM147.85 19.5137C148.039 19.4296 148.125 19.208 148.041 19.0187L147.584 19.2218C147.556 19.1587 147.584 19.0848 147.647 19.0568L147.85 19.5137ZM146.274 20.7896C146.621 20.2684 147.127 19.8349 147.85 19.5137L147.647 19.0568C146.846 19.4127 146.263 19.9048 145.858 20.5123L146.274 20.7896Z" fill="white" mask="url(#path-2-inside-1_630_6864)"/>
<path d="M38.7847 33.9406L37.7397 37.0156H36.8397L35.7247 32.9106H36.6497L37.3947 36.0656L38.4247 32.9906H39.1447L40.1647 36.0656L40.9147 32.9106H41.8447L40.7297 37.0156H39.8297L38.7847 33.9406ZM45.6008 37.1356C45.1774 37.1356 44.8008 37.0406 44.4708 36.8506C44.1441 36.6606 43.8874 36.404 43.7008 36.0806C43.5141 35.754 43.4208 35.3856 43.4208 34.9756C43.4208 34.5656 43.5141 34.1956 43.7008 33.8656C43.8874 33.5356 44.1441 33.274 44.4708 33.0806C44.8008 32.8873 45.1774 32.7906 45.6008 32.7906C46.0208 32.7906 46.3924 32.8873 46.7158 33.0806C47.0424 33.274 47.2974 33.5356 47.4808 33.8656C47.6641 34.1956 47.7558 34.5656 47.7558 34.9756C47.7558 35.3856 47.6641 35.754 47.4808 36.0806C47.2974 36.404 47.0424 36.6606 46.7158 36.8506C46.3924 37.0406 46.0208 37.1356 45.6008 37.1356ZM45.6008 36.3906C45.8674 36.3906 46.0991 36.329 46.2958 36.2056C46.4958 36.0823 46.6508 35.914 46.7608 35.7006C46.8708 35.484 46.9258 35.2406 46.9258 34.9706C46.9258 34.7006 46.8708 34.4573 46.7608 34.2406C46.6508 34.024 46.4958 33.8523 46.2958 33.7256C46.0991 33.599 45.8674 33.5356 45.6008 33.5356C45.3308 33.5356 45.0958 33.599 44.8958 33.7256C44.6958 33.8523 44.5391 34.024 44.4258 34.2406C44.3158 34.4573 44.2608 34.7006 44.2608 34.9706C44.2608 35.2406 44.3158 35.484 44.4258 35.7006C44.5391 35.914 44.6958 36.0823 44.8958 36.2056C45.0958 36.329 45.3308 36.3906 45.6008 36.3906ZM54.6453 32.7906C54.9486 32.7906 55.2086 32.8573 55.4253 32.9906C55.642 33.1206 55.807 33.3206 55.9203 33.5906C56.037 33.8606 56.0953 34.2056 56.0953 34.6256V37.0156H55.2353V34.8006C55.2353 34.3573 55.1736 34.024 55.0503 33.8006C54.927 33.5773 54.702 33.4656 54.3753 33.4656C54.202 33.4656 54.0353 33.514 53.8753 33.6106C53.7186 33.704 53.5886 33.849 53.4853 34.0456C53.3853 34.2423 53.3353 34.494 53.3353 34.8006V37.0156H52.5253V34.8006C52.5253 34.3573 52.4486 34.024 52.2953 33.8006C52.142 33.5773 51.927 33.4656 51.6503 33.4656C51.4736 33.4656 51.307 33.5123 51.1503 33.6056C50.997 33.6956 50.872 33.839 50.7753 34.0356C50.6786 34.2323 50.6303 34.4873 50.6303 34.8006V37.0156H49.7653V32.9106H50.6303V33.5406C50.667 33.4373 50.7453 33.3273 50.8653 33.2106C50.9886 33.094 51.1453 32.9956 51.3353 32.9156C51.5286 32.8323 51.7436 32.7906 51.9803 32.7906C52.227 32.7906 52.4336 32.8406 52.6003 32.9406C52.767 33.0406 52.8986 33.164 52.9953 33.3106C53.092 33.454 53.1586 33.5923 53.1953 33.7256C53.242 33.5823 53.332 33.439 53.4653 33.2956C53.5986 33.149 53.767 33.029 53.9703 32.9356C54.1736 32.839 54.3986 32.7906 54.6453 32.7906ZM58.8434 35.1406C58.8468 35.3873 58.9001 35.6123 59.0034 35.8156C59.1068 36.019 59.2601 36.1806 59.4634 36.3006C59.6701 36.4206 59.9234 36.4806 60.2234 36.4806C60.4768 36.4806 60.6918 36.444 60.8684 36.3706C61.0484 36.294 61.1951 36.204 61.3084 36.1006C61.4218 35.994 61.5034 35.899 61.5534 35.8156L61.9784 36.3406C61.8684 36.5006 61.7334 36.6406 61.5734 36.7606C61.4168 36.8806 61.2251 36.9723 60.9984 37.0356C60.7718 37.1023 60.4951 37.1356 60.1684 37.1356C59.7284 37.1356 59.3468 37.0423 59.0234 36.8556C58.7034 36.6656 58.4568 36.404 58.2834 36.0706C58.1101 35.734 58.0234 35.349 58.0234 34.9156C58.0234 34.5156 58.1051 34.1556 58.2684 33.8356C58.4318 33.5123 58.6684 33.2573 58.9784 33.0706C59.2918 32.884 59.6684 32.7906 60.1084 32.7906C60.5118 32.7906 60.8618 32.8756 61.1584 33.0456C61.4584 33.2123 61.6901 33.449 61.8534 33.7556C62.0201 34.0623 62.1034 34.429 62.1034 34.8556C62.1034 34.8823 62.1018 34.9306 62.0984 35.0006C62.0951 35.0673 62.0918 35.114 62.0884 35.1406H58.8434ZM61.2734 34.4856C61.2701 34.349 61.2301 34.199 61.1534 34.0356C61.0801 33.8723 60.9601 33.7323 60.7934 33.6156C60.6268 33.499 60.4018 33.4406 60.1184 33.4406C59.8251 33.4406 59.5884 33.4973 59.4084 33.6106C59.2318 33.724 59.1018 33.8623 59.0184 34.0256C58.9351 34.1856 58.8868 34.339 58.8734 34.4856H61.2734ZM66.3591 32.7906C66.6291 32.7906 66.8907 32.8473 67.1441 32.9606C67.4007 33.074 67.6107 33.254 67.7741 33.5006C67.9407 33.744 68.0241 34.0623 68.0241 34.4556V37.0156H67.1441V34.6256C67.1441 34.219 67.0491 33.924 66.8591 33.7406C66.6691 33.554 66.4241 33.4606 66.1241 33.4606C65.9274 33.4606 65.7374 33.5173 65.5541 33.6306C65.3741 33.7406 65.2257 33.894 65.1091 34.0906C64.9924 34.284 64.9341 34.504 64.9341 34.7506V37.0156H64.0641V32.9106H64.9341V33.6406C64.9641 33.5273 65.0457 33.404 65.1791 33.2706C65.3124 33.1373 65.4824 33.024 65.6891 32.9306C65.8957 32.8373 66.1191 32.7906 66.3591 32.7906ZM75.587 36.4156C75.847 36.4156 76.057 36.374 76.217 36.2906C76.377 36.2073 76.477 36.1473 76.517 36.1106L76.942 36.7356C76.9086 36.7656 76.8286 36.814 76.702 36.8806C76.5786 36.944 76.4186 37.0023 76.222 37.0556C76.0286 37.109 75.8086 37.1356 75.562 37.1356C75.1853 37.1356 74.8353 37.0523 74.512 36.8856C74.1886 36.7156 73.927 36.469 73.727 36.1456C73.5303 35.8223 73.432 35.4273 73.432 34.9606C73.432 34.4906 73.5303 34.0956 73.727 33.7756C73.927 33.4523 74.1886 33.2073 74.512 33.0406C74.8353 32.874 75.1853 32.7906 75.562 32.7906C75.8053 32.7906 76.022 32.8206 76.212 32.8806C76.402 32.9373 76.5586 33.0006 76.682 33.0706C76.8053 33.1406 76.887 33.194 76.927 33.2306L76.497 33.8556C76.4703 33.829 76.4186 33.789 76.342 33.7356C76.2686 33.679 76.1686 33.6273 76.042 33.5806C75.9153 33.534 75.7636 33.5106 75.587 33.5106C75.3736 33.5106 75.1653 33.569 74.962 33.6856C74.762 33.799 74.597 33.964 74.467 34.1806C74.337 34.3973 74.272 34.6573 74.272 34.9606C74.272 35.264 74.337 35.5256 74.467 35.7456C74.597 35.9623 74.762 36.129 74.962 36.2456C75.1653 36.359 75.3736 36.4156 75.587 36.4156ZM79.7073 37.0156H78.8323V30.1356H79.7073V37.0156ZM83.8605 37.1356C83.4372 37.1356 83.0605 37.0406 82.7305 36.8506C82.4039 36.6606 82.1472 36.404 81.9605 36.0806C81.7739 35.754 81.6805 35.3856 81.6805 34.9756C81.6805 34.5656 81.7739 34.1956 81.9605 33.8656C82.1472 33.5356 82.4039 33.274 82.7305 33.0806C83.0605 32.8873 83.4372 32.7906 83.8605 32.7906C84.2805 32.7906 84.6522 32.8873 84.9755 33.0806C85.3022 33.274 85.5572 33.5356 85.7405 33.8656C85.9239 34.1956 86.0155 34.5656 86.0155 34.9756C86.0155 35.3856 85.9239 35.754 85.7405 36.0806C85.5572 36.404 85.3022 36.6606 84.9755 36.8506C84.6522 37.0406 84.2805 37.1356 83.8605 37.1356ZM83.8605 36.3906C84.1272 36.3906 84.3589 36.329 84.5555 36.2056C84.7555 36.0823 84.9105 35.914 85.0205 35.7006C85.1305 35.484 85.1855 35.2406 85.1855 34.9706C85.1855 34.7006 85.1305 34.4573 85.0205 34.2406C84.9105 34.024 84.7555 33.8523 84.5555 33.7256C84.3589 33.599 84.1272 33.5356 83.8605 33.5356C83.5905 33.5356 83.3555 33.599 83.1555 33.7256C82.9555 33.8523 82.7989 34.024 82.6855 34.2406C82.5755 34.4573 82.5205 34.7006 82.5205 34.9706C82.5205 35.2406 82.5755 35.484 82.6855 35.7006C82.7989 35.914 82.9555 36.0823 83.1555 36.2056C83.3555 36.329 83.5905 36.3906 83.8605 36.3906ZM87.6301 32.9106H88.4351V31.2256H89.3001V32.9106H90.3551V33.6556H89.3001V35.6856C89.3001 35.9256 89.3417 36.1023 89.4251 36.2156C89.5117 36.329 89.6267 36.3856 89.7701 36.3856C89.8967 36.3856 89.9951 36.3623 90.0651 36.3156C90.1351 36.269 90.1767 36.2373 90.1901 36.2206L90.5351 36.8606C90.5151 36.8773 90.4617 36.909 90.3751 36.9556C90.2884 37.0023 90.1767 37.044 90.0401 37.0806C89.9034 37.1173 89.7434 37.1356 89.5601 37.1356C89.2401 37.1356 88.9717 37.039 88.7551 36.8456C88.5417 36.649 88.4351 36.339 88.4351 35.9156V33.6556H87.6301V32.9106ZM94.6156 32.7906C94.8856 32.7906 95.1473 32.8473 95.4006 32.9606C95.6573 33.074 95.8673 33.254 96.0306 33.5006C96.1973 33.744 96.2806 34.0623 96.2806 34.4556V37.0156H95.4006V34.6256C95.4006 34.219 95.3073 33.924 95.1206 33.7406C94.9373 33.554 94.6956 33.4606 94.3956 33.4606C94.1956 33.4606 94.004 33.5173 93.8206 33.6306C93.6373 33.7406 93.4856 33.894 93.3656 34.0906C93.249 34.284 93.1906 34.504 93.1906 34.7506V37.0156H92.3106V30.1356H93.1906V33.6406C93.2206 33.5273 93.3006 33.404 93.4306 33.2706C93.564 33.1373 93.734 33.024 93.9406 32.9306C94.1473 32.8373 94.3723 32.7906 94.6156 32.7906ZM98.5516 37.0156V32.9106H99.4216V37.0156H98.5516ZM98.9966 31.5056C98.84 31.5056 98.705 31.4506 98.5916 31.3406C98.4816 31.2273 98.4266 31.0923 98.4266 30.9356C98.4266 30.779 98.4816 30.644 98.5916 30.5306C98.705 30.4173 98.84 30.3606 98.9966 30.3606C99.1 30.3606 99.195 30.3873 99.2816 30.4406C99.3716 30.494 99.4433 30.564 99.4966 30.6506C99.55 30.734 99.5766 30.829 99.5766 30.9356C99.5766 31.0923 99.52 31.2273 99.4066 31.3406C99.2933 31.4506 99.1566 31.5056 98.9966 31.5056ZM104.047 32.7906C104.317 32.7906 104.578 32.8473 104.832 32.9606C105.088 33.074 105.298 33.254 105.462 33.5006C105.628 33.744 105.712 34.0623 105.712 34.4556V37.0156H104.832V34.6256C104.832 34.219 104.737 33.924 104.547 33.7406C104.357 33.554 104.112 33.4606 103.812 33.4606C103.615 33.4606 103.425 33.5173 103.242 33.6306C103.062 33.7406 102.913 33.894 102.797 34.0906C102.68 34.284 102.622 34.504 102.622 34.7506V37.0156H101.752V32.9106H102.622V33.6406C102.652 33.5273 102.733 33.404 102.867 33.2706C103 33.1373 103.17 33.024 103.377 32.9306C103.583 32.8373 103.807 32.7906 104.047 32.7906ZM109.809 39.2106C109.486 39.2106 109.193 39.1773 108.929 39.1106C108.669 39.044 108.441 38.949 108.244 38.8256C108.051 38.7056 107.896 38.564 107.779 38.4006L108.349 37.8556C108.413 37.9423 108.498 38.034 108.604 38.1306C108.714 38.2306 108.863 38.3156 109.049 38.3856C109.236 38.4556 109.479 38.4906 109.779 38.4906C110.073 38.4906 110.321 38.4273 110.524 38.3006C110.728 38.1773 110.883 38.009 110.989 37.7956C111.096 37.5823 111.149 37.3423 111.149 37.0756V36.9406H111.999V37.1306C111.999 37.584 111.901 37.964 111.704 38.2706C111.511 38.5806 111.249 38.814 110.919 38.9706C110.589 39.1306 110.219 39.2106 109.809 39.2106ZM111.149 37.0156V36.2156C111.123 36.299 111.044 36.414 110.914 36.5606C110.788 36.7073 110.613 36.8406 110.389 36.9606C110.169 37.0773 109.909 37.1356 109.609 37.1356C109.229 37.1356 108.884 37.0456 108.574 36.8656C108.268 36.6856 108.023 36.434 107.839 36.1106C107.659 35.784 107.569 35.4023 107.569 34.9656C107.569 34.529 107.659 34.149 107.839 33.8256C108.023 33.499 108.268 33.2456 108.574 33.0656C108.884 32.8823 109.229 32.7906 109.609 32.7906C109.906 32.7906 110.163 32.844 110.379 32.9506C110.599 33.0573 110.774 33.1806 110.904 33.3206C111.038 33.4606 111.116 33.5806 111.139 33.6806V32.9106H111.999V37.0156H111.149ZM108.429 34.9656C108.429 35.2623 108.494 35.519 108.624 35.7356C108.754 35.9523 108.923 36.1206 109.129 36.2406C109.339 36.3573 109.563 36.4156 109.799 36.4156C110.053 36.4156 110.279 36.3556 110.479 36.2356C110.679 36.1156 110.838 35.9473 110.954 35.7306C111.071 35.5106 111.129 35.2556 111.129 34.9656C111.129 34.6756 111.071 34.4223 110.954 34.2056C110.838 33.9856 110.679 33.8156 110.479 33.6956C110.279 33.5723 110.053 33.5106 109.799 33.5106C109.563 33.5106 109.339 33.5706 109.129 33.6906C108.923 33.8106 108.754 33.979 108.624 34.1956C108.494 34.4123 108.429 34.669 108.429 34.9656Z" fill="#404040"/>
</svg>
