<svg width="20" height="24" viewBox="0 0 20 24" fill="none" xmlns="http://www.w3.org/2000/svg">
<path d="M14.5269 7.7043C16.0707 8.81139 17.9611 9.46282 20.003 9.46282V6.35875C18.8632 6.11511 17.8542 5.51738 17.0956 4.68597C15.7971 3.87276 14.8615 2.53118 14.5872 0.960938H11.7246V16.7116C11.7181 18.5478 10.2332 20.0346 8.40211 20.0346C7.32306 20.0346 6.36443 19.5184 5.75731 18.7188C4.67318 18.1696 3.92972 17.0423 3.92972 15.7404C3.92972 13.8991 5.41704 12.4062 7.2521 12.4062C7.60369 12.4062 7.94256 12.4611 8.26044 12.5624V9.42436C4.3197 9.50607 1.15039 12.7375 1.15039 16.7117C1.15039 18.6955 1.93962 20.494 3.22055 21.8081C4.37614 22.5868 5.76724 23.041 7.26391 23.041C11.2752 23.041 14.527 19.7775 14.527 15.7518V7.7043H14.5269Z" fill="white"/>
<path d="M20.0025 6.3578V5.51848C18.9748 5.52005 17.9672 5.23119 17.0952 4.68493C17.8671 5.53306 18.8835 6.11787 20.0025 6.3578ZM14.5867 0.959983C14.5605 0.809911 14.5404 0.658851 14.5265 0.507214V0H10.574V15.7508C10.5677 17.5868 9.08292 19.0736 7.25163 19.0736C6.714 19.0736 6.20638 18.9455 5.75685 18.7179C6.36397 19.5174 7.32259 20.0335 8.40164 20.0335C10.2326 20.0335 11.7177 18.5469 11.7241 16.7107V0.959983H14.5867ZM8.26014 9.4234V8.52989C7.92988 8.48459 7.59691 8.46186 7.26353 8.46202C3.25191 8.46194 0 11.7254 0 15.7508C0 18.2745 1.27806 20.4987 3.22017 21.807C1.93924 20.493 1.15001 18.6944 1.15001 16.7106C1.15001 12.7365 4.31923 9.50511 8.26014 9.4234Z" fill="white"/>
</svg>
